<svg xmlns="http://www.w3.org/2000/svg" viewBox="0 0 112.84 127.45"><title>app-select</title><g id="ee4bf479-a01b-4f78-8dda-5dceabc6fa1c" data-name="Layer 2"><g id="27b1b10c-7f32-48b5-9e4d-7b0bbf3bfa08" data-name="Icon Set"><rect id="47665f28-5e63-409e-b09f-e266c28b5bdb" data-name="&lt;Rectangle&gt;" x="11.72" y="26.63" width="12.76" height="12.76" rx="3.23" ry="3.23" style="fill:#794a6b"/><rect id="5e7c1c8c-5113-489d-827f-0a0d6f359e06" data-name="&lt;Rectangle&gt;" x="31.51" y="26.63" width="12.76" height="12.76" rx="3.23" ry="3.23" style="fill:#794a6b"/><rect id="3b195b1b-ed96-4dce-bc8b-da1d87c1eaa3" data-name="&lt;Rectangle&gt;" x="51.29" y="26.63" width="12.76" height="12.76" rx="3.23" ry="3.23" style="fill:#794a6b"/><rect id="3bf3b243-60cc-4d14-92c1-3d8ce6bc33a7" data-name="&lt;Rectangle&gt;" x="11.72" y="47.27" width="12.76" height="12.76" rx="3.23" ry="3.23" style="fill:#794a6b"/><rect id="67876815-5a54-4783-89b7-da323b4d4706" data-name="&lt;Rectangle&gt;" x="31.51" y="47.27" width="12.76" height="12.76" rx="3.23" ry="3.23" style="fill:#794a6b"/><rect id="ed8e5b64-792e-47f1-8bc2-3ce7724c984a" data-name="&lt;Rectangle&gt;" x="11.72" y="67.91" width="12.76" height="12.76" rx="3.23" ry="3.23" style="fill:#794a6b"/><rect id="b1bf05b9-828a-4477-bfab-5e17ca33216d" data-name="&lt;Rectangle&gt;" x="31.51" y="67.91" width="12.76" height="12.76" rx="3.23" ry="3.23" style="fill:#794a6b"/><line id="5b67bca3-f38d-49c6-9956-704e4c82d4a5" data-name="&lt;Path&gt;" x1="42.37" y1="8.92" x2="54.12" y2="8.92" style="fill:none;stroke:#3a2b35;stroke-linecap:round;stroke-linejoin:round;stroke-width:3px"/><path id="7f578cc5-655d-4f7b-90da-7e69004ccf6d" data-name="&lt;Path&gt;" d="M55,126H8.89a7.39,7.39,0,0,1-7.39-7.39V8.89A7.39,7.39,0,0,1,8.89,1.5H87.61A7.39,7.39,0,0,1,95,8.89V44.05" style="fill:none;stroke:#3a2b35;stroke-linecap:round;stroke-linejoin:round;stroke-width:3px"/><line id="4eb535d7-d512-4a2d-83f1-43ac68b8ff68" data-name="&lt;Path&gt;" x1="42.37" y1="118.53" x2="54.12" y2="118.53" style="fill:none;stroke:#3a2b35;stroke-linecap:round;stroke-linejoin:round;stroke-width:3px"/><line id="95a3c281-90f5-4bcd-8f49-568cd9a145d4" data-name="&lt;Path&gt;" x1="1.5" y1="16.34" x2="95" y2="16.34" style="fill:none;stroke:#3a2b35;stroke-linecap:round;stroke-linejoin:round;stroke-width:3px"/><line id="3a9c72ff-104d-4eb7-a4d7-7e7cb367869a" data-name="&lt;Path&gt;" x1="54.12" y1="111.11" x2="1.5" y2="111.11" style="fill:none;stroke:#3a2b35;stroke-linecap:round;stroke-linejoin:round;stroke-width:3px"/><path d="M82.41,63V50.64h4.82a4.82,4.82,0,0,1,4.83,4.82" style="fill:none;stroke:#3a2b35;stroke-linecap:round;stroke-linejoin:round;stroke-width:3px"/><path d="M111.31,72.71a95.72,95.72,0,0,1-4.56,26.9,49,49,0,0,0-1.33,5H84.7" style="fill:none;stroke:#3a2b35;stroke-linecap:round;stroke-linejoin:round;stroke-width:3px"/><path d="M82.41,50.64V37.83A4.82,4.82,0,0,0,77.59,33h0a4.82,4.82,0,0,0-4.82,4.82v35.7l-3.32-8.65a5.72,5.72,0,0,0-5.34-3.67h0a5.72,5.72,0,0,0-5.72,5.72h0a32,32,0,0,0,4.49,16.45A36.91,36.91,0,0,0,67,89c5.93,6.62,7.49,15.59,7.49,15.59" style="fill:none;stroke:#3a2b35;stroke-linecap:round;stroke-linejoin:round;stroke-width:3px"/><path d="M92.06,66.56V54.24h4.82a4.82,4.82,0,0,1,4.82,4.82V70.74" style="fill:none;stroke:#3a2b35;stroke-linecap:round;stroke-linejoin:round;stroke-width:3px"/><path d="M101.7,60.4h4.82a4.82,4.82,0,0,1,4.82,4.82v7.49" style="fill:none;stroke:#3a2b35;stroke-linecap:round;stroke-linejoin:round;stroke-width:3px"/><rect x="70.7" y="111.11" width="37.39" height="14.84" style="fill:#794a6b;stroke:#3a2b35;stroke-linecap:round;stroke-linejoin:round;stroke-width:3px"/><circle cx="99.77" cy="118.53" r="0.92" style="fill:none;stroke:#3a2b35;stroke-linecap:round;stroke-linejoin:round;stroke-width:3px"/></g></g></svg>