<svg xmlns="http://www.w3.org/2000/svg" viewBox="0 0 129.57 124.33"><title>cloud-intergration</title><g id="0d7ac95e-2844-4b76-a0a8-b18633fbf63d" data-name="Layer 2"><g id="3608d629-b76c-46e7-9af0-7405cc6e24e5" data-name="Icon Set"><path id="2f0b21e8-5ecf-4a9e-9453-5165acef9edc" data-name="&lt;Path&gt;" d="M30.79,78.25s-14.93,1.37-19.91-9.67a17.12,17.12,0,0,1,13-23.88s-3.07-7.16,3.17-11.18c0,0,4-2.87,11.58-.63,0,0,2.75-21.47,26.86-25.68,0,0-25.84,8.86-19.81,32.57,0,0-7.82-4.24-12,2.46,0,0-3,5.21.43,8.63a12.29,12.29,0,0,0-11.57,5.26,13.06,13.06,0,0,0-2.22,9.2C20.88,69.72,23,76.15,30.79,78.25Z" style="fill:#794a6b"/><path id="f9ff71ec-fc5b-4adc-8a16-77c2c4442f29" data-name="&lt;Path&gt;" d="M30,25.78A13.63,13.63,0,0,0,16.34,39l0,.53-.48.18A22.5,22.5,0,0,0,24,83.12h74.4a29.65,29.65,0,1,0,0-59.3h-.55l-.25-.51a33.32,33.32,0,0,0-63.3,2.31l-.21.74-.74-.19A13.54,13.54,0,0,0,30,25.78Z" style="fill:none;stroke:#3a2b35;stroke-linecap:round;stroke-linejoin:round;stroke-width:3px"/><line id="55c6112f-98e2-436a-85a0-707de61c9be0" data-name="&lt;Path&gt;" x1="64.79" y1="83.12" x2="64.79" y2="98.07" style="fill:none;stroke:#3a2b35;stroke-linecap:round;stroke-linejoin:round;stroke-width:3px"/><polygon id="74f8e48f-4146-4942-9859-2c682153d1f8" data-name="&lt;Path&gt;" points="71.39 109.63 71.39 98.07 58.18 98.07 58.18 109.63 49.21 109.63 49.21 122.83 58.18 122.83 71.39 122.83 80.36 122.83 80.36 109.63 71.39 109.63" style="fill:none;stroke:#3a2b35;stroke-linecap:round;stroke-linejoin:round;stroke-width:3px"/><line id="ee68cd30-e686-47b1-bafd-6bdb27398ac8" data-name="&lt;Path&gt;" x1="80.36" y1="116.23" x2="115.5" y2="116.23" style="fill:none;stroke:#3a2b35;stroke-linecap:round;stroke-linejoin:round;stroke-width:3px"/><line id="283cc4e4-a312-4417-ae6c-fa12524164fa" data-name="&lt;Path&gt;" x1="14.08" y1="116.23" x2="49.21" y2="116.23" style="fill:none;stroke:#3a2b35;stroke-linecap:round;stroke-linejoin:round;stroke-width:3px"/></g></g></svg>