<svg xmlns="http://www.w3.org/2000/svg" viewBox="0 0 133.57 130.82"><title>implementations</title><g id="33ec3ce6-729f-40d2-911d-9481aef1aee7" data-name="Layer 2"><g id="5ab12a65-4417-4537-af51-fef8cb31d1b7" data-name="Icon Set"><line x1="1.5" y1="57.62" x2="9.09" y2="57.62" style="fill:#fff;stroke:#3a2b35;stroke-linecap:round;stroke-linejoin:round;stroke-width:3px"/><path d="M73.79,111.38a56,56,0,1,1,38.4-40.59" style="fill:#fff;stroke:#3a2b35;stroke-linecap:round;stroke-linejoin:round;stroke-width:3px"/><line x1="106.15" y1="57.62" x2="113.74" y2="57.62" style="fill:#fff;stroke:#3a2b35;stroke-linecap:round;stroke-linejoin:round;stroke-width:3px"/><line x1="57.62" y1="1.5" x2="57.62" y2="9.09" style="fill:#fff;stroke:#3a2b35;stroke-linecap:round;stroke-linejoin:round;stroke-width:3px"/><line x1="57.62" y1="106.15" x2="57.62" y2="113.75" style="fill:#fff;stroke:#3a2b35;stroke-linecap:round;stroke-linejoin:round;stroke-width:3px"/><path d="M80.53,57.62A22.91,22.91,0,1,0,57.62,80.54,22.91,22.91,0,0,0,80.53,57.62Z" style="fill:#794a6b;stroke:#794a6b;stroke-miterlimit:10"/><path d="M49.21,27.17a31.61,31.61,0,0,0-21.35,41" style="fill:none;stroke:#3a2b35;stroke-linecap:round;stroke-linejoin:round;stroke-width:3px;stroke-dasharray:0,7.977729797363281"/><path d="M59.1,57.62a1.48,1.48,0,1,1-1.48-1.47A1.48,1.48,0,0,1,59.1,57.62Z" style="fill:none;stroke:#3a2b35;stroke-linecap:round;stroke-linejoin:round;stroke-width:3px"/><polyline points="57.62 21.35 57.62 57.62 28.97 79.29" style="fill:none;stroke:#3a2b35;stroke-linecap:round;stroke-linejoin:round;stroke-width:3px"/><path d="M100.92,64.25l-4.09.09A3.29,3.29,0,0,0,93.6,67.7h0a3.28,3.28,0,0,1-2.27,3.2,26.87,26.87,0,0,0-5.26,2.3,3.28,3.28,0,0,1-3.9-.49h0a3.3,3.3,0,0,0-4.66.09l-2.83,3a3.3,3.3,0,0,0,.09,4.66h0a3.27,3.27,0,0,1,.65,3.87,27.51,27.51,0,0,0-2.09,5.35,3.27,3.27,0,0,1-3.1,2.4h0A3.3,3.3,0,0,0,67,95.4l.09,4.09a3.29,3.29,0,0,0,3.36,3.23h0a3.28,3.28,0,0,1,3.2,2.27,26.87,26.87,0,0,0,2.3,5.26,3.28,3.28,0,0,1-.49,3.9h0a3.3,3.3,0,0,0,.09,4.66l3,2.83a3.3,3.3,0,0,0,4.66-.09h0A3.27,3.27,0,0,1,87,120.9,27.51,27.51,0,0,0,92.39,123a3.27,3.27,0,0,1,2.4,3.1h0a3.3,3.3,0,0,0,3.36,3.23l4.09-.09a3.29,3.29,0,0,0,3.23-3.36h0a3.28,3.28,0,0,1,2.27-3.2,26.87,26.87,0,0,0,5.26-2.3,3.28,3.28,0,0,1,3.9.49h0a3.3,3.3,0,0,0,4.66-.09l2.83-3a3.31,3.31,0,0,0-.09-4.67h0a3.27,3.27,0,0,1-.65-3.87,27.51,27.51,0,0,0,2.09-5.35,3.27,3.27,0,0,1,3.1-2.4h0a3.3,3.3,0,0,0,3.23-3.36L132,94.08a3.29,3.29,0,0,0-3.36-3.23h0a3.28,3.28,0,0,1-3.2-2.27,26.87,26.87,0,0,0-2.3-5.26,3.28,3.28,0,0,1,.49-3.9h0a3.3,3.3,0,0,0-.09-4.66l-3-2.83a3.31,3.31,0,0,0-4.67.09h0a3.27,3.27,0,0,1-3.87.65,27.51,27.51,0,0,0-5.35-2.09,3.27,3.27,0,0,1-2.4-3.1h0A3.3,3.3,0,0,0,100.92,64.25Z" style="fill:#fff;stroke:#3a2b35;stroke-linejoin:round;stroke-width:3px"/><path d="M116.87,96.43a17.34,17.34,0,1,1-17.69-17A17.35,17.35,0,0,1,116.87,96.43Z" style="fill:#fff;stroke:#3a2b35;stroke-linejoin:round;stroke-width:3px"/><line x1="1.5" y1="57.49" x2="9.09" y2="57.49" style="fill:none;stroke:#3a2b35;stroke-linecap:round;stroke-linejoin:round;stroke-width:3px"/></g></g></svg>