<svg xmlns="http://www.w3.org/2000/svg" viewBox="0 0 89.09 131.43"><title>light-bulb</title><g id="736fd087-7738-494e-85b1-5b1f205ce578" data-name="Layer 2"><g id="1feedfbf-8412-4965-b075-295118de8f39" data-name="Icon Set"><path d="M78.73,51.54a34.19,34.19,0,1,0-58.55,24,20.38,20.38,0,0,1,6,14.28v.12H62.87v-.12a19.67,19.67,0,0,1,5.74-14A34,34,0,0,0,78.73,51.54Z" style="fill:none;stroke:#3a2b35;stroke-linecap:round;stroke-miterlimit:10;stroke-width:3px"/><path d="M20.75,49.32a24,24,0,0,1,22.1-21.8q.85-.06,1.71-.06a23.79,23.79,0,0,1,15.77,6" style="fill:none;stroke:#3a2b35;stroke-linecap:round;stroke-miterlimit:10;stroke-width:3px"/><line x1="26.01" y1="97.12" x2="63.09" y2="97.12" style="fill:none;stroke:#3a2b35;stroke-linecap:round;stroke-miterlimit:10;stroke-width:3px"/><path d="M26,104.47H63.09a0,0,0,0,1,0,0v2.47a15.27,15.27,0,0,1-15.27,15.27H41.28A15.27,15.27,0,0,1,26,106.94v-2.47a0,0,0,0,1,0,0Z" style="fill:none;stroke:#3a2b35;stroke-linecap:round;stroke-miterlimit:10;stroke-width:3px"/><path d="M39.07,122.52v1.93a5.48,5.48,0,0,0,5.48,5.48h0A5.48,5.48,0,0,0,50,124.45v-1.94" style="fill:none;stroke:#3a2b35;stroke-linecap:round;stroke-miterlimit:10;stroke-width:3px"/><path d="M33.07,81.91a28.72,28.72,0,0,0-4.27-8.58c22.44-.51,35.76-11.86,41.74-18.63A26,26,0,0,1,63,70.12a27.43,27.43,0,0,0-7,11.79Z" style="fill:#794a6b"/><line x1="44.55" y1="9.34" x2="44.55" y2="1.5" style="fill:none;stroke:#3a2b35;stroke-linecap:round;stroke-miterlimit:10;stroke-width:3px"/><line x1="30.11" y1="12.2" x2="27.42" y2="4.83" style="fill:none;stroke:#3a2b35;stroke-linecap:round;stroke-miterlimit:10;stroke-width:3px"/><line x1="17.52" y1="19.83" x2="12.47" y2="13.82" style="fill:none;stroke:#3a2b35;stroke-linecap:round;stroke-miterlimit:10;stroke-width:3px"/><line x1="8.29" y1="31.3" x2="1.5" y2="27.37" style="fill:none;stroke:#3a2b35;stroke-linecap:round;stroke-miterlimit:10;stroke-width:3px"/><line x1="58.98" y1="12.2" x2="61.67" y2="4.83" style="fill:none;stroke:#3a2b35;stroke-linecap:round;stroke-miterlimit:10;stroke-width:3px"/><line x1="71.58" y1="19.83" x2="76.62" y2="13.82" style="fill:none;stroke:#3a2b35;stroke-linecap:round;stroke-miterlimit:10;stroke-width:3px"/><line x1="80.8" y1="31.3" x2="87.59" y2="27.37" style="fill:none;stroke:#3a2b35;stroke-linecap:round;stroke-miterlimit:10;stroke-width:3px"/></g></g></svg>