<svg xmlns="http://www.w3.org/2000/svg" viewBox="0 0 129.21 130.04"><defs><style>.cls-1{fill:#794a6b;}.cls-2,.cls-3{fill:none;stroke:#3a2b35;stroke-miterlimit:10;stroke-width:3px;}.cls-3{stroke-linecap:round;}</style></defs><title>presentation</title><g id="Layer_2" data-name="Layer 2"><g id="Icon_Set" data-name="Icon Set"><rect class="cls-1" x="19.35" y="113.44" width="34.12" height="16.6"/><circle class="cls-2" cx="36.41" cy="26.94" r="8.24" transform="translate(5.24 59.79) rotate(-83)"/><line class="cls-2" x1="36.41" y1="42.32" x2="36.41" y2="56.47"/><polyline class="cls-2" points="23.21 59.07 23.21 78.81 49.61 78.81 49.61 59.07"/><path class="cls-2" d="M12.68,78.81V53.31c0-6.07,3.24-11,9.31-11H50.83"/><path class="cls-2" d="M50.83,42.32h0c6.07,0,9.31,4.92,9.31,11v25.5"/><path class="cls-2" d="M19.35,102H12.68L7.21,88.61a1.11,1.11,0,0,1,1-1.53H64.59a1.11,1.11,0,0,1,1,1.53L60.14,102H53.47"/><path class="cls-2" d="M53.47,130V96.67a.74.74,0,0,0-.75-.75H20.1a.74.74,0,0,0-.75.75V130"/><polyline class="cls-3" points="7.12 35.18 7.12 9.96 122.08 9.96 122.08 77.09 71.15 77.09"/><path class="cls-3" d="M123.48,10H5.73A4.23,4.23,0,0,1,1.5,5.73h0A4.23,4.23,0,0,1,5.73,1.5H123.48a4.23,4.23,0,0,1,4.23,4.23h0A4.23,4.23,0,0,1,123.48,10Z"/><polyline class="cls-3" points="72.15 52.1 81.02 43.52 92.73 54.25 113.22 33.29"/></g></g></svg>