<svg xmlns="http://www.w3.org/2000/svg" viewBox="0 0 107.97 131.85"><title>research</title><g id="3b164403-00fb-4ca9-bc27-1b759cc135bd" data-name="Layer 2"><g id="d1673538-7012-4dd8-9d8c-7c3d884074fe" data-name="Icon Set"><circle cx="82.84" cy="78.16" r="23.62" transform="translate(-23.61 37.65) rotate(-22.5)" style="fill:none;stroke:#3a2b35;stroke-miterlimit:10;stroke-width:3px"/><rect x="12.45" y="87.69" width="22.75" height="6.81" style="fill:#794a6b"/><polyline points="62.35 113.28 1.5 113.28 1.5 1.5 82.84 1.5 82.84 50.2" style="fill:none;stroke:#3a2b35;stroke-miterlimit:10;stroke-width:3px"/><rect x="12.45" y="12.45" width="37.75" height="37.75" style="fill:none;stroke:#3a2b35;stroke-miterlimit:10;stroke-width:3px"/><line x1="12.45" y1="66.74" x2="50.23" y2="66.74" style="fill:none;stroke:#3a2b35;stroke-miterlimit:10;stroke-width:3px"/><line x1="12.45" y1="78.4" x2="50.23" y2="78.4" style="fill:none;stroke:#3a2b35;stroke-miterlimit:10;stroke-width:3px"/><path d="M20.26,42.39H42.39V20.26S35.61,36,20.26,42.39Z" style="fill:#794a6b"/><path d="M82.84,62.74A15.44,15.44,0,0,1,98.27,78.16" style="fill:none;stroke:#3a2b35;stroke-linecap:round;stroke-miterlimit:10;stroke-width:3px"/><path d="M78,106.48v19a4.85,4.85,0,0,0,4.85,4.85h0a4.85,4.85,0,0,0,4.85-4.85v-19" style="fill:none;stroke:#3a2b35;stroke-miterlimit:10;stroke-width:3px"/></g></g></svg>