<svg xmlns="http://www.w3.org/2000/svg" viewBox="0 0 128.22 130.06"><defs><style>.cls-1{fill:none;stroke:#fff;stroke-linecap:round;stroke-linejoin:round;stroke-width:4px;}</style></defs><title>supportHeadset_white</title><g id="Layer_2" data-name="Layer 2"><g id="Icon_Set" data-name="Icon Set"><path class="cls-1" d="M12.06,58.19H23a0,0,0,0,1,0,0v36.9a0,0,0,0,1,0,0h-11A10.06,10.06,0,0,1,2,85V68.25A10.06,10.06,0,0,1,12.06,58.19Z"/><path class="cls-1" d="M28.44,100.44h0A5.4,5.4,0,0,1,23,95V58.24a5.4,5.4,0,0,1,5.4-5.4h0a5.4,5.4,0,0,1,5.4,5.4V95A5.4,5.4,0,0,1,28.44,100.44Z"/><path class="cls-1" d="M115.23,58.19h11a0,0,0,0,1,0,0v36.9a0,0,0,0,1,0,0h-11A10.06,10.06,0,0,1,105.17,85V68.25A10.06,10.06,0,0,1,115.23,58.19Z" transform="translate(231.39 153.28) rotate(180)"/><path class="cls-1" d="M99.77,100.44h0a5.4,5.4,0,0,0,5.4-5.4V58.24a5.4,5.4,0,0,0-5.4-5.4h0a5.39,5.39,0,0,0-5.39,5.4V95A5.39,5.39,0,0,0,99.77,100.44Z"/><path class="cls-1" d="M115.06,52.24a50.25,50.25,0,0,0-100.49,0"/><path class="cls-1" d="M115.06,100.69h0a21.18,21.18,0,0,1-21.18,21.18H80.44"/><path class="cls-1" d="M74.24,115.67H64.81a6.2,6.2,0,0,0-6.19,6.2h0a6.19,6.19,0,0,0,6.19,6.19h9.43a6.2,6.2,0,0,0,6.2-6.19h0A6.21,6.21,0,0,0,74.24,115.67Z"/></g></g></svg>