<svg xmlns="http://www.w3.org/2000/svg" viewBox="0 0 129.85 128.87"><title>three-people</title><g id="dc2a9b99-2ea2-4246-8b08-62c1de5e9013" data-name="Layer 2"><g id="5f1a3765-aec6-4642-8df5-d547ac9c8eab" data-name="Icon Set"><line x1="65.02" y1="79.29" x2="50.84" y2="93.47" style="fill:none;stroke:#3a2b35;stroke-linecap:round;stroke-linejoin:round;stroke-width:3px"/><polyline points="65.02 63.64 65.02 79.29 79 93.28" style="fill:none;stroke:#3a2b35;stroke-linecap:round;stroke-linejoin:round;stroke-width:3px"/><path d="M56.4,27.27,44,35.41S42.24,53.86,42.24,55" style="fill:none;stroke:#3a2b35;stroke-linecap:round;stroke-linejoin:round;stroke-width:3px"/><path d="M56.4,27.27h0l.21,9.2a9.15,9.15,0,0,0,3.29,6.82l5,4.18,5-4.18a9.12,9.12,0,0,0,3.3-6.82l.21-9.2h0A14.36,14.36,0,0,1,56.4,27.27Z" style="fill:none;stroke:#3a2b35;stroke-linecap:round;stroke-linejoin:round;stroke-width:3px"/><path d="M87.6,55c0-1.17-1.72-19.62-1.72-19.62L73.45,27.27" style="fill:none;stroke:#3a2b35;stroke-linecap:round;stroke-linejoin:round;stroke-width:3px"/><path d="M74,12.6c0-6.13-4-11.1-9-11.1s-9,5-9,11.1,4,11.11,9,11.11S74,18.74,74,12.6Z" style="fill:none;stroke:#3a2b35;stroke-linecap:round;stroke-linejoin:round;stroke-width:3px"/><line x1="64.92" y1="47.47" x2="64.92" y2="55.03" style="fill:none;stroke:#3a2b35;stroke-linecap:round;stroke-linejoin:round;stroke-width:3px"/><path d="M15.65,99.61,3.22,107.75S1.5,126.2,1.5,127.37" style="fill:none;stroke:#3a2b35;stroke-linecap:round;stroke-linejoin:round;stroke-width:3px"/><path d="M15.65,99.61h0l.21,9.2a9.12,9.12,0,0,0,3.3,6.82l5,4.18,5-4.18a9.15,9.15,0,0,0,3.29-6.82l.21-9.2h0A14.36,14.36,0,0,1,15.65,99.61Z" style="fill:none;stroke:#3a2b35;stroke-linecap:round;stroke-linejoin:round;stroke-width:3px"/><path d="M46.86,127.37c0-1.17-1.72-19.62-1.72-19.62L32.7,99.61" style="fill:none;stroke:#3a2b35;stroke-linecap:round;stroke-linejoin:round;stroke-width:3px"/><path d="M33.22,84.94c0-6.13-4-11.1-9-11.1s-9,5-9,11.1,4,11.11,9,11.11S33.22,91.08,33.22,84.94Z" style="fill:none;stroke:#3a2b35;stroke-linecap:round;stroke-linejoin:round;stroke-width:3px"/><line x1="24.18" y1="119.81" x2="24.18" y2="127.37" style="fill:none;stroke:#3a2b35;stroke-linecap:round;stroke-linejoin:round;stroke-width:3px"/><path d="M97.14,99.61l-12.43,8.14S83,126.2,83,127.37" style="fill:none;stroke:#3a2b35;stroke-linecap:round;stroke-linejoin:round;stroke-width:3px"/><path d="M97.14,99.61h0l.21,9.2a9.12,9.12,0,0,0,3.3,6.82l5,4.18,5-4.18a9.15,9.15,0,0,0,3.29-6.82l.21-9.2h0A14.36,14.36,0,0,1,97.14,99.61Z" style="fill:none;stroke:#3a2b35;stroke-linecap:round;stroke-linejoin:round;stroke-width:3px"/><path d="M128.35,127.37c0-1.17-1.72-19.62-1.72-19.62l-12.44-8.14" style="fill:none;stroke:#3a2b35;stroke-linecap:round;stroke-linejoin:round;stroke-width:3px"/><path d="M114.71,84.94c0-6.13-4-11.1-9-11.1s-9,5-9,11.1,4,11.11,9,11.11S114.71,91.08,114.71,84.94Z" style="fill:none;stroke:#3a2b35;stroke-linecap:round;stroke-linejoin:round;stroke-width:3px"/><line x1="105.67" y1="119.81" x2="105.67" y2="127.37" style="fill:none;stroke:#3a2b35;stroke-linecap:round;stroke-linejoin:round;stroke-width:3px"/></g></g></svg>