<svg xmlns="http://www.w3.org/2000/svg" viewBox="0 0 121.38 99.78"><title>video</title><g id="78189499-f9fa-4a36-b999-cfa542c17568" data-name="Layer 2"><g id="daeff4d7-4696-4713-8a92-aa14514e85cf" data-name="Icon Set"><rect x="1.5" y="27.33" width="117.76" height="70.24" style="fill:#fff"/><polygon points="2.35 2.35 119.13 1.5 119.88 27.33 2.35 27.33 2.35 2.35" style="fill:#794a6b"/><path d="M20.1,14.29a3.43,3.43,0,1,0-3.42,3.42A3.43,3.43,0,0,0,20.1,14.29Z" style="fill:none;stroke:#3a2b35;stroke-miterlimit:10;stroke-width:3px"/><path d="M35.18,14.29a3.43,3.43,0,1,0-3.43,3.42A3.44,3.44,0,0,0,35.18,14.29Z" style="fill:none;stroke:#3a2b35;stroke-miterlimit:10;stroke-width:3px"/><path d="M50.25,14.29a3.42,3.42,0,1,0-3.42,3.42A3.43,3.43,0,0,0,50.25,14.29Z" style="fill:none;stroke:#3a2b35;stroke-miterlimit:10;stroke-width:3px"/><line x1="1.88" y1="27.33" x2="120.26" y2="27.33" style="fill:none;stroke:#3a2b35;stroke-miterlimit:10;stroke-width:3px"/><line x1="61.68" y1="14.41" x2="108.84" y2="14.41" style="fill:none;stroke:#3a2b35;stroke-linecap:round;stroke-miterlimit:10;stroke-width:3px"/><line x1="13.25" y1="85.43" x2="13.25" y2="90.31" style="fill:none;stroke:#3a2b35;stroke-linecap:round;stroke-linejoin:round;stroke-width:3px"/><line x1="19.18" y1="85.43" x2="19.18" y2="90.31" style="fill:none;stroke:#3a2b35;stroke-linecap:round;stroke-linejoin:round;stroke-width:3px"/><line x1="27.48" y1="87.87" x2="83.5" y2="87.87" style="fill:none;stroke:#3a2b35;stroke-linecap:round;stroke-linejoin:round;stroke-width:3px"/><polygon points="78.75 58.34 56.7 44.5 56.7 72.17 78.75 58.34" style="fill:none;stroke:#3a2b35;stroke-linejoin:round;stroke-width:3px"/><rect x="1.5" y="1.5" width="118.38" height="96.78" rx="2.24" ry="2.24" style="fill:none;stroke:#3a2b35;stroke-linecap:round;stroke-linejoin:round;stroke-width:3px"/></g></g></svg>